 http://www.imdb.com/title/tt1446714/

Source: Prometheus.2012.720p.BluRay.X264-AMIABLE Thanks!

Subs: Arabic, Brazilian, Bulgarian, Danish, Dutch, English, Farsi-Persian, Finnish, French, Greek, Indonesian, Italian, Lithuanian, Malay, Norwegian, Portuguese, Servian, Slovenian, Swedish, Turkish and Vietnamese.

Sample and Screens included.

General
Complete name                            : Prometheus-720p MP4 AAC x264 BRRip 2012-CC.mp4
Format                                   : MPEG-4
Format profile                           : Base Media
Codec ID                                 : isom
File size                                : 2.88 GiB
Duration                                 : 2h 3mn
Overall bit rate mode                    : Variable
Overall bit rate                         : 3 333 Kbps
Encoded date                             : UTC 2012-09-28 06:23:04

Video
ID                                       : 1
Format                                   : AVC
Format/Info                              : Advanced Video Codec
Format profile                           : High@L3.1
Format settings, CABAC                   : Yes
Format settings, ReFrames                : 5 frames
Codec ID                                 : avc1
Codec ID/Info                            : Advanced Video Coding
Duration                                 : 2h 3mn
Bit rate                                 : 2 978 Kbps
Maximum bit rate                         : 37.9 Mbps
Width                                    : 1 280 pixels
Height                                   : 528 pixels
Display aspect ratio                     : 2.40:1
Original display aspect ratio            : 2.40:1
Frame rate mode                          : Variable
Frame rate                               : 23.976 fps
Minimum frame rate                       : 15.873 fps
Maximum frame rate                       : 25.000 fps
Color space                              : YUV
Chroma subsampling                       : 4:2:0
Bit depth                                : 8 bits
Scan type                                : Progressive
Bits/(Pixel*Frame)                       : 0.184
Stream size                              : 2.55 GiB (88%)
Writing library                          : x264 core 112

Audio
ID                                       : 2
Format                                   : AAC
Format/Info                              : Advanced Audio Codec
Format profile                           : LC
Codec ID                                 : 40
Duration                                 : 2h 3mn
Bit rate mode                            : Variable
Bit rate                                 : 384 Kbps
Maximum bit rate                         : 728 Kbps
Channel(s)                               : 6 channels
Channel positions                        : Front: L C R, Side: L R, LFE
Sampling rate                            : 48.0 KHz
Compression mode                         : Lossy
Delay relative to video                  : 83ms
Stream size                              : 340 MiB (12%)
Language                                 : English

Enjoy...

Coming up soon: Batman Begins, The Dark Knight, Taking of Pelham 123, Coffee and Cigarettes and more...